<svg width="434" height="101" viewBox="0 0 434 101" fill="none" xmlns="http://www.w3.org/2000/svg">
<path d="M229.303 66.45C229.303 68.5833 228.786 70.4 227.753 71.9C226.72 73.3667 225.236 74.5 223.303 75.3C221.403 76.1 219.153 76.5 216.553 76.5C215.22 76.5 213.936 76.4333 212.703 76.3C211.503 76.1667 210.403 75.9833 209.403 75.75C208.403 75.4833 207.52 75.1667 206.753 74.8V70.5C207.953 71.0333 209.436 71.5167 211.203 71.95C213.003 72.3833 214.853 72.6 216.753 72.6C218.52 72.6 220.003 72.3667 221.203 71.9C222.403 71.4333 223.303 70.7667 223.903 69.9C224.503 69.0333 224.803 68.0167 224.803 66.85C224.803 65.6833 224.553 64.7 224.053 63.9C223.553 63.1 222.686 62.3667 221.453 61.7C220.253 61 218.57 60.2667 216.403 59.5C214.87 58.9333 213.52 58.3333 212.353 57.7C211.22 57.0333 210.27 56.2833 209.503 55.45C208.736 54.6167 208.153 53.6667 207.753 52.6C207.386 51.5333 207.203 50.3 207.203 48.9C207.203 47 207.686 45.3833 208.653 44.05C209.62 42.6833 210.953 41.6333 212.653 40.9C214.386 40.1667 216.37 39.8 218.603 39.8C220.57 39.8 222.37 39.9833 224.003 40.35C225.636 40.7167 227.12 41.2 228.453 41.8L227.053 45.65C225.82 45.1167 224.47 44.6667 223.003 44.3C221.57 43.9333 220.07 43.75 218.503 43.75C217.003 43.75 215.753 43.9667 214.753 44.4C213.753 44.8333 213.003 45.45 212.503 46.25C212.003 47.0167 211.753 47.9167 211.753 48.95C211.753 50.15 212.003 51.15 212.503 51.95C213.003 52.75 213.82 53.4667 214.953 54.1C216.086 54.7333 217.62 55.4167 219.553 56.15C221.653 56.9167 223.42 57.75 224.853 58.65C226.32 59.5167 227.42 60.5667 228.153 61.8C228.92 63.0333 229.303 64.5833 229.303 66.45ZM248.645 48.7C251.945 48.7 254.595 49.85 256.595 52.15C258.628 54.45 259.645 57.9167 259.645 62.55C259.645 65.5833 259.178 68.15 258.245 70.25C257.345 72.3167 256.061 73.8833 254.395 74.95C252.761 75.9833 250.828 76.5 248.595 76.5C247.228 76.5 246.011 76.3167 244.945 75.95C243.878 75.5833 242.961 75.1167 242.195 74.55C241.461 73.95 240.828 73.3 240.295 72.6H239.995C240.061 73.1667 240.128 73.8833 240.195 74.75C240.261 75.6167 240.295 76.3667 240.295 77V88H235.895V49.2H239.495L240.095 52.85H240.295C240.828 52.0833 241.461 51.3833 242.195 50.75C242.961 50.1167 243.861 49.6167 244.895 49.25C245.961 48.8833 247.211 48.7 248.645 48.7ZM247.845 52.4C246.045 52.4 244.595 52.75 243.495 53.45C242.395 54.1167 241.595 55.1333 241.095 56.5C240.595 57.8667 240.328 59.6 240.295 61.7V62.55C240.295 64.75 240.528 66.6167 240.995 68.15C241.461 69.6833 242.245 70.85 243.345 71.65C244.478 72.45 246.011 72.85 247.945 72.85C249.578 72.85 250.911 72.4 251.945 71.5C253.011 70.6 253.795 69.3833 254.295 67.85C254.828 66.2833 255.095 64.5 255.095 62.5C255.095 59.4333 254.495 56.9833 253.295 55.15C252.128 53.3167 250.311 52.4 247.845 52.4ZM276.806 48.75C280.073 48.75 282.49 49.4667 284.056 50.9C285.623 52.3333 286.406 54.6167 286.406 57.75V76H283.206L282.356 72.2H282.156C281.39 73.1667 280.59 73.9833 279.756 74.65C278.956 75.2833 278.023 75.75 276.956 76.05C275.923 76.35 274.656 76.5 273.156 76.5C271.556 76.5 270.106 76.2167 268.806 75.65C267.54 75.0833 266.54 74.2167 265.806 73.05C265.073 71.85 264.706 70.35 264.706 68.55C264.706 65.8833 265.756 63.8333 267.856 62.4C269.956 60.9333 273.19 60.1333 277.556 60L282.106 59.85V58.25C282.106 56.0167 281.623 54.4667 280.656 53.6C279.69 52.7333 278.323 52.3 276.556 52.3C275.156 52.3 273.823 52.5167 272.556 52.95C271.29 53.35 270.106 53.8167 269.006 54.35L267.656 51.05C268.823 50.4167 270.206 49.8833 271.806 49.45C273.406 48.9833 275.073 48.75 276.806 48.75ZM278.106 63.05C274.773 63.1833 272.456 63.7167 271.156 64.65C269.89 65.5833 269.256 66.9 269.256 68.6C269.256 70.1 269.706 71.2 270.606 71.9C271.54 72.6 272.723 72.95 274.156 72.95C276.423 72.95 278.306 72.3333 279.806 71.1C281.306 69.8333 282.056 67.9 282.056 65.3V62.9L278.106 63.05ZM307.184 48.7C307.684 48.7 308.217 48.7333 308.784 48.8C309.384 48.8333 309.9 48.9 310.334 49L309.784 53.05C309.35 52.95 308.867 52.8667 308.334 52.8C307.834 52.7333 307.35 52.7 306.884 52.7C305.85 52.7 304.867 52.9167 303.934 53.35C303 53.7833 302.167 54.4 301.434 55.2C300.7 55.9667 300.117 56.9 299.684 58C299.284 59.1 299.084 60.3333 299.084 61.7V76H294.684V49.2H298.284L298.784 54.1H298.984C299.55 53.1 300.234 52.2 301.034 51.4C301.834 50.5667 302.75 49.9167 303.784 49.45C304.817 48.95 305.95 48.7 307.184 48.7ZM319.688 57.85C319.688 58.3833 319.655 59.0833 319.588 59.95C319.555 60.8167 319.521 61.5667 319.488 62.2H319.688C319.888 61.9333 320.188 61.55 320.588 61.05C320.988 60.55 321.388 60.05 321.788 59.55C322.221 59.0167 322.588 58.5833 322.888 58.25L331.438 49.2H336.588L325.738 60.65L337.338 76H332.038L322.738 63.5L319.688 66.15V76H315.338V38H319.688V57.85Z" fill="white"/>
<rect x="116.083" y="17.9318" width="315.53" height="81.1364" rx="16.0985" stroke="white" stroke-width="3.86364"/>
<path d="M14.5909 77.697H4.28784V57.0909M73.8333 77.697H84.1363C84.1363 76.4455 84.1363 71.5461 84.1363 57.0909M62.2424 35.197H64.8181C71.2575 35.6263 84.1363 40.3485 84.1363 55.803C84.1363 56.2405 84.1363 56.6698 84.1363 57.0909M62.2424 35.197V51.9394C62.2424 53.6566 63.5303 57.0909 68.6818 57.0909C73.8333 57.0909 81.1313 57.0909 84.1363 57.0909M62.2424 35.197H51.9394M51.9394 35.197V51.9394C51.9394 54.0858 50.6515 57.0909 44.2121 57.0909H28.1136M51.9394 35.197H28.1136M4.28784 57.0909V35.197H28.1136M4.28784 57.0909H28.1136M28.1136 35.197V57.0909" stroke="white" stroke-width="3.09091"/>
<path d="M9.43939 35.197L3 19.7424H13.303L21.0303 24.8939H35.197L24.8939 3L36.4849 5.57576L50.6515 26.1818H68.6818C73.404 26.6111 81.5606 29.7879 76.4091 39.0606" stroke="white" stroke-width="3.09091"/>
<path d="M32.6212 77.697H55.803" stroke="white" stroke-width="3.09091"/>
<circle cx="64.8182" cy="76.4091" r="8.75758" stroke="white" stroke-width="3.09091"/>
<circle cx="23.606" cy="76.4091" r="8.75758" stroke="white" stroke-width="3.09091"/>
</svg>
